<svg height="480pt" viewBox="0 0 480.032 480" width="480pt" xmlns="http://www.w3.org/2000/svg"><path d="m72.03125 448.015625v-416c0-13.253906 10.746094-24 24-24h232l80 80v360c0 13.253906-10.746094 24-24 24h-288c-13.253906 0-24-10.746094-24-24zm0 0" fill="#87ced9"/><path d="m352.03125 104.015625h56v-16l-80-80v72c0 13.253906 10.746094 24 24 24zm0 0" fill="#71c4d1"/><path d="m352.03125 88.015625h56l-80-80v56c0 13.253906 10.746094 24 24 24zm0 0" fill="#d6d9db"/><path d="m104.039062 32.015625h16v16h-16zm0 0" fill="#5eb3d1"/><path d="m136.039062 32.015625h16v16h-16zm0 0" fill="#5eb3d1"/><path d="m168.039062 32.015625h16v16h-16zm0 0" fill="#5eb3d1"/><path d="m280.03125 248.015625h-272v-112l48-48h224zm0 0" fill="#4398d1"/><path d="m8.03125 208.015625 80-64 80 72 56-48 56 48v32h-272zm0 0" fill="#88b337"/><path d="m192.03125 136.015625c0 13.253906-10.746094 24-24 24s-24-10.746094-24-24 10.746094-24 24-24 24 10.746094 24 24zm0 0" fill="#e8594a"/><path d="m43.101562 209.78125 40.007813-32.015625 10.003906 12.503906-40.007812 32.015625zm0 0" fill="#aacc60"/><path d="m202.378906 218.359375 15.996094-16 11.3125 11.316406-15.996094 15.996094zm0 0" fill="#aacc60"/><path d="m56.03125 136.015625v-48l-48 48zm0 0" fill="#87ced9"/><path d="m272.03125 320.015625h176v112h-176zm0 0" fill="#e8594a"/><path d="m40.03125 280.015625h200v96h-200zm0 0" fill="#fdb62f"/><g fill="#fd882f"><path d="m64.03125 304.015625h16v16h-16zm0 0"/><path d="m96.03125 304.015625h120v16h-120zm0 0"/><path d="m64.03125 336.015625h16v16h-16zm0 0"/><path d="m96.03125 336.015625h120v16h-120zm0 0"/></g><path d="m312.03125 192.015625h160v96h-160zm0 0" fill="#4398d1"/><path d="m336.03125 216.015625h32v16h-32zm0 0" fill="#126099"/><path d="m384.03125 216.015625h64v16h-64zm0 0" fill="#126099"/><path d="m336.03125 248.015625h112v16h-112zm0 0" fill="#126099"/><path d="m72.03125 248.015625h208v24h-208zm0 0" fill="#71c4d1"/><path d="m322.375 354.359375-16 16c-3.121094 3.125-3.121094 8.1875 0 11.3125l16 16 11.3125-11.3125-10.34375-10.34375 10.34375-10.34375zm0 0" fill="#c44639"/><path d="m413.6875 370.359375-16-16-11.3125 11.3125 10.34375 10.34375-10.34375 10.34375 11.3125 11.3125 16-16c3.125-3.125 3.125-8.1875 0-11.3125zm0 0" fill="#c44639"/><path d="m344.28125 406.078125 15.984375-64.003906 15.515625 3.875-15.984375 64.003906zm0 0" fill="#c44639"/><path d="m312.03125 288.015625h96v24h-96zm0 0" fill="#71c4d1"/><path d="m272.03125 432.015625v24h134.527344c.949218-2.5625 1.449218-5.269531 1.472656-8v-16zm0 0" fill="#71c4d1"/><path d="m72.03125 376.015625h168v16h-168zm0 0" fill="#71c4d1"/><path d="m384.03125 464.015625h-288c-8.835938 0-16-7.164063-16-16v-48h-16v48c0 17.671875 14.328125 32 32 32h288c13.5625 0 25.648438-8.550781 30.167969-21.335937l-15.070313-5.328126c-2.273437 6.386719-8.316406 10.65625-15.097656 10.664063zm0 0"/><path d="m416.03125 168.015625v-80c0-.167969-.085938-.320313-.09375-.496094-.046875-.707031-.1875-1.402343-.417969-2.070312-.085937-.257813-.152343-.496094-.261719-.746094-.390624-.871094-.933593-1.664063-1.601562-2.34375l-80-80c-.679688-.667969-1.472656-1.210937-2.34375-1.597656-.242188-.101563-.492188-.191407-.746094-.265625-.671875-.230469-1.371094-.371094-2.078125-.417969-.128906.027344-.28125-.0625-.457031-.0625h-232c-17.671875 0-32 14.328125-32 32v32h16v-32c0-8.835937 7.164062-16 16-16h224v48c0 17.671875 14.328125 32 32 32h48v72zm-64-88c-8.835938 0-16-7.164063-16-16v-36.6875l52.695312 52.6875zm0 0"/><path d="m104.039062 32.015625h16v16h-16zm0 0"/><path d="m136.039062 32.015625h16v16h-16zm0 0"/><path d="m168.039062 32.015625h16v16h-16zm0 0"/><path d="m288.03125 248.015625v-160c0-4.417969-3.582031-8-8-8h-224c-.160156 0-.296875.082031-.445312.089844-.730469.042969-1.453126.1875-2.144532.421875-.242187.089844-.480468.152344-.714844.257812-.871093.386719-1.667968.929688-2.351562 1.597656l-48 48c-.667969.679688-1.210938 1.476563-1.597656 2.34375-.113282.242188-.175782.496094-.265625.746094-.230469.667969-.371094 1.367188-.4140628 2.070313 0 .175781-.0976562.328125-.0976562.496093v111.976563c0 4.417969 3.582031 8 8 8h272.03125c4.417969 0 8-3.582031 8-8zm-16-49.382813-42.800781-36.6875c-2.992188-2.5625-7.40625-2.5625-10.398438 0l-50.671875 43.421876-74.777344-67.296876c-2.910156-2.621093-7.292968-2.75-10.351562-.300781l-67 53.597657v-47.351563h40c4.417969 0 8-3.582031 8-8v-40h208zm-224-91.304687v20.6875h-20.6875zm224 132.6875h-256v-28.160156l71.695312-57.34375 74.953126 67.449219c2.988281 2.683593 7.5 2.738281 10.550781.128906l50.800781-43.539063 48 41.144531zm0 0"/><path d="m168.03125 160.015625c13.253906 0 24-10.746094 24-24s-10.746094-24-24-24-24 10.746094-24 24 10.746094 24 24 24zm0-32c4.417969 0 8 3.582031 8 8s-3.582031 8-8 8-8-3.582031-8-8 3.582031-8 8-8zm0 0"/><path d="m43.101562 209.78125 40.007813-32.015625 10.003906 12.503906-40.007812 32.015625zm0 0"/><path d="m202.378906 218.359375 15.996094-16 11.3125 11.316406-15.996094 15.996094zm0 0"/><path d="m448.03125 312.015625h-176c-4.417969 0-8 3.582031-8 8v112c0 4.417969 3.582031 8 8 8h176c4.417969 0 8-3.582031 8-8v-112c0-4.417969-3.582031-8-8-8zm-8 112h-160v-96h160zm0 0"/><path d="m322.375 397.671875 11.3125-11.3125-10.34375-10.34375 10.34375-10.34375-11.3125-11.3125-16 16c-3.121094 3.125-3.121094 8.1875 0 11.3125zm0 0"/><path d="m397.6875 397.671875 16-16c3.125-3.125 3.125-8.1875 0-11.3125l-16-16-11.3125 11.3125 10.34375 10.34375-10.34375 10.34375zm0 0"/><path d="m344.28125 406.078125 15.984375-64.003906 15.515625 3.875-15.984375 64.003906zm0 0"/><path d="m248.03125 376.015625v-96c0-4.417969-3.582031-8-8-8h-200c-4.417969 0-8 3.582031-8 8v96c0 4.417969 3.582031 8 8 8h200c4.417969 0 8-3.582031 8-8zm-16-8h-184v-80h184zm0 0"/><path d="m64.03125 304.015625h16v16h-16zm0 0"/><path d="m96.03125 304.015625h120v16h-120zm0 0"/><path d="m64.03125 336.015625h16v16h-16zm0 0"/><path d="m96.03125 336.015625h120v16h-120zm0 0"/><path d="m472.03125 184.015625h-160c-4.417969 0-8 3.582031-8 8v96c0 4.417969 3.582031 8 8 8h160c4.417969 0 8-3.582031 8-8v-96c0-4.417969-3.582031-8-8-8zm-8 96h-144v-80h144zm0 0"/><path d="m336.03125 216.015625h32v16h-32zm0 0"/><path d="m384.03125 216.015625h64v16h-64zm0 0"/><path d="m336.03125 248.015625h112v16h-112zm0 0"/></svg>